<svg width="1440" height="999" viewBox="0 0 1440 999" fill="none" xmlns="http://www.w3.org/2000/svg">
<mask id="mask0_21_177" style="mask-type:luminance" maskUnits="userSpaceOnUse" x="0" y="-143" width="1440" height="1440">
<path d="M1439.54 -143H0V1296.54H1439.54V-143Z" fill="white"/>
</mask>
<g mask="url(#mask0_21_177)">
<path d="M1508.37 1365.37H-68.8323V-211.832H1508.37V1365.37ZM-67.963 1364.5H1507.5V-210.963H-67.963V1364.5Z" fill="#ABABAB" fill-opacity="0.1"/>
<path d="M758.071 1087.95C743.189 1087.95 728.217 1087.59 713.109 1086.88C643.314 1083.56 571.147 1072.44 498.614 1053.83C429.745 1036.16 360.065 1011.62 291.509 980.908C252.548 964.21 210.176 961.783 177.615 961.534C130.558 961.209 89.6268 961.182 48.3676 961.182H-68.3979V960.313H48.3683C89.6288 960.313 130.56 960.34 177.623 960.665C210.264 960.914 252.748 963.35 291.859 980.111C595.271 1116.06 894.121 1122.5 1133.36 998.248C1142.6 994.639 1151.32 991.006 1159.76 987.494C1193.64 973.388 1222.89 961.206 1261.62 960.313H1507.94V961.182H1261.63C1223.07 962.071 1193.89 974.224 1160.09 988.297C1151.65 991.812 1142.93 995.445 1133.72 999.039C1019.99 1058.11 893.791 1087.95 758.071 1087.95Z" fill="#ABABAB" fill-opacity="0.1"/>
<path d="M753.61 1068.36C741.998 1068.36 730.35 1068.13 718.666 1067.67C574.887 1061.94 425.367 1020.51 286.27 947.864C257.425 932.683 221.805 923.98 177.375 921.256C128.248 920.823 84.5909 920.764 48.3683 920.764H-68.3973V919.895H48.3683C84.5936 919.895 128.252 919.953 177.406 920.387C221.985 923.118 257.719 931.854 286.674 947.094C581.955 1101.32 895.342 1108.31 1146.48 966.278C1160.37 960.076 1172.04 953.398 1183.33 946.939C1207.74 932.973 1228.83 920.912 1261.62 919.895H1507.94V920.764H1261.63C1229.07 921.775 1208.08 933.785 1183.77 947.693C1172.46 954.163 1160.76 960.852 1146.88 967.053C1081.69 1003.92 1011.39 1031.14 937.976 1047.92C878.532 1061.51 816.663 1068.36 753.61 1068.36Z" fill="#ABABAB" fill-opacity="0.1"/>
<path d="M746.585 1051.45C687.465 1051.45 627.239 1043.75 564.66 1028.28C478.309 1006.93 388.69 970.877 290.68 918.052C282.513 914.325 274.93 910.57 267.599 906.938C239.779 893.155 215.753 881.252 177.895 880.345H-68.3979V879.475H177.904C215.965 880.387 240.073 892.33 267.985 906.158C275.31 909.787 282.885 913.539 291.067 917.273C503.401 1031.71 684.219 1071 860.137 1040.93C955.208 1025.86 1039.57 987.596 1121.16 950.592C1162.07 932.039 1204.36 912.855 1247.77 896.651C1293.64 879.007 1343.22 879.248 1391.17 879.475H1507.94V880.345H1391.17C1343.3 880.11 1293.8 879.876 1248.07 897.464C1204.69 913.66 1162.41 932.837 1121.52 951.384C1039.88 988.412 955.462 1026.7 860.278 1041.79C822.625 1048.23 784.835 1051.45 746.585 1051.45Z" fill="#ABABAB" fill-opacity="0.1"/>
<path d="M734.517 1022.66C656.208 1022.66 579.191 1011.61 505.342 989.745C424.685 965.869 348.091 929.163 277.687 880.645C266.954 875.372 258.076 869.863 249.488 864.535C229.004 851.824 211.313 840.846 177.894 839.926H-68.3966V839.056H177.906C211.572 839.983 229.356 851.019 249.948 863.797C258.516 869.114 267.377 874.612 278.127 879.897C415.091 974.281 573.13 1021.41 735.184 1021.41C902.711 1021.41 1074.53 971.089 1232.04 870.613C1279.92 838.695 1339.29 837.588 1391.18 839.056H1507.94V839.926H1391.17C1339.4 838.462 1280.19 839.559 1232.51 871.341C1082.03 967.337 914.904 1019.62 749.185 1022.53C744.295 1022.62 739.397 1022.66 734.517 1022.66Z" fill="#ABABAB" fill-opacity="0.1"/>
<path d="M752.179 995.207C707.779 995.207 662.8 991.18 617.381 983.113C499.409 962.158 380.977 914.611 265.375 841.791C233.42 821.609 201.505 812.68 163.415 805.484C129.234 799.969 87.8373 799.508 48.3676 799.508H-68.3979V798.639H48.3683C87.8739 798.639 129.31 799.101 163.566 804.629C201.765 811.846 233.769 820.8 265.839 841.056C436.56 948.597 700.553 1055.49 988.722 954.023C1037.49 936.739 1083.84 910.75 1128.67 885.618C1169.17 862.911 1211.05 839.432 1254.09 822.824C1302.32 804.212 1347.17 796.3 1391.19 798.64L1507.94 798.639V799.508H1391.17C1293.31 794.314 1209.83 841.115 1129.1 886.377C1084.23 911.528 1037.85 937.535 989.011 954.844C912.657 981.727 833.395 995.207 752.179 995.207Z" fill="#ABABAB" fill-opacity="0.1"/>
<path d="M737.771 958.06C723.626 958.06 709.381 957.587 695.012 956.604C620.86 951.768 546.033 934.413 466.259 903.548C402.713 878.962 337.009 846.513 253.22 798.335C187.282 760.911 112.911 758.446 48.3717 759.088H-68.3986V758.219H48.3683C113.008 757.59 187.524 760.047 253.652 797.58C385.458 873.368 530.158 944.982 695.071 955.737C900.991 969.819 1083.56 879.312 1252.92 785.407C1297.64 762.153 1345.73 759.226 1391.16 758.219H1507.94V759.088H1391.17C1345.86 760.092 1297.88 763.011 1253.33 786.173C1095.68 873.587 926.551 958.058 737.771 958.06Z" fill="#ABABAB" fill-opacity="0.1"/>
<path d="M755.63 908.45C676.412 908.451 596.897 895.906 513.448 870.308C432.727 845.549 349.881 808.927 260.178 758.349C191.101 720.174 114.348 716.874 48.3798 718.67H-68.3979V717.8H48.3683C114.442 716 191.338 719.312 260.603 757.59C452.405 865.734 618.623 913.234 783.696 907.055C921 901.874 1044.02 844.517 1162.99 789.047C1203.65 770.09 1245.7 750.487 1287.74 733.227C1319.07 720.035 1351.74 717.515 1391.17 717.8H1507.94V718.669H1391.17C1351.83 718.382 1319.27 720.894 1288.08 734.029C1246.05 751.282 1204.01 770.882 1163.36 789.835C1044.31 845.34 921.208 902.735 783.728 907.923C774.366 908.275 764.994 908.45 755.63 908.45Z" fill="#ABABAB" fill-opacity="0.1"/>
<path d="M731.733 838.414C729.346 838.414 726.976 838.403 724.595 838.38C577.314 835.601 439.917 783.103 307.043 732.334C273.541 719.533 238.898 706.297 204.61 694.051C158.857 678.274 109.944 678.27 62.642 678.267C57.8708 678.267 53.111 678.266 48.3669 678.25H-68.3973V677.381H48.3683C53.1131 677.397 57.8721 677.398 62.642 677.398C110.016 677.401 159.003 677.404 204.899 693.23C239.199 705.48 273.847 718.719 307.354 731.521C440.158 782.264 577.483 834.734 724.608 837.51C911.934 839.314 1086.59 771.503 1249.49 701.935C1289.13 685.164 1332.82 677.592 1391.17 677.381H1507.94V678.251H1391.17C1332.94 678.461 1289.35 686.013 1249.83 702.735C1169.9 736.872 1083.56 772.032 993.768 797.941C899.465 825.153 813.65 838.414 731.733 838.414Z" fill="#ABABAB" fill-opacity="0.1"/>
<path d="M755.541 738.106C698.065 738.106 638.799 734.149 576.979 726.237C451.268 710.15 326.125 678.973 220.291 650.596C164.915 635.494 108.625 636.622 54.1826 637.716L48.3764 637.831H-68.3979V636.962H48.3683L54.1656 636.847C108.662 635.75 165.022 634.622 220.519 649.757C443.168 709.453 682.133 764.263 940.116 722.769C1007.18 712.799 1071.39 696.453 1133.48 680.643C1190.26 666.188 1248.97 651.24 1309.09 641.433C1334.43 638.6 1355.97 636.961 1391.17 636.961H1507.94V637.831H1391.17C1356.01 637.831 1334.49 639.467 1309.21 642.294C1249.15 652.092 1190.46 667.035 1133.7 681.485C1071.58 697.3 1007.35 713.652 940.249 723.628C880.234 733.281 818.98 738.105 755.541 738.106Z" fill="#ABABAB" fill-opacity="0.1"/>
<path d="M798.256 607.741C579.766 607.741 361.906 603.5 148.127 599.34C114.871 598.693 81.6152 598.045 48.3594 597.414H-68.3979V596.544H48.3683C81.6321 597.177 114.888 597.824 148.144 598.47C361.892 602.631 579.792 606.872 798.251 606.872C969.135 606.872 1140.33 604.279 1310.33 597.026C1332.07 596.762 1353.15 596.544 1391.17 596.544H1507.94V597.414H1391.17C1353.16 597.414 1332.08 597.632 1310.35 597.895C1140.37 605.147 969.122 607.741 798.256 607.741Z" fill="#ABABAB" fill-opacity="0.1"/>
<path d="M106.348 557.347C97.7361 557.347 89.0676 557.255 80.2865 557.162C69.857 557.051 59.0733 556.938 48.3703 556.995H-68.3979V556.125H48.3683C59.0767 556.073 69.8624 556.182 80.2953 556.292C120.29 556.716 158.064 557.116 197.714 548.913C384.808 504.944 552.746 481.695 711.115 477.837C889.313 473.492 1056.4 493.335 1221.95 538.486C1254.51 548.062 1284.55 550.978 1309.64 552.568C1334.88 554.82 1356.31 556.124 1391.17 556.124H1507.94V556.994H1391.17C1356.28 556.994 1334.83 555.689 1309.57 553.435C1284.45 551.843 1254.35 548.921 1221.72 539.323C912.45 454.977 587.122 458.294 197.902 549.761C166.866 556.182 137.003 557.347 106.348 557.347Z" fill="#ABABAB" fill-opacity="0.1"/>
<path d="M82.2619 517.144C70.8627 517.144 59.5496 516.916 48.3547 516.575H-68.3973V515.706H48.3683C108.721 517.543 172.781 516.099 232.42 493.297C322.306 458.34 419.334 422.639 519.777 398.308C628.369 372.006 726.657 362.688 820.256 369.829C927.401 377.405 1027.26 413.359 1123.83 448.129C1182.96 469.417 1244.09 491.429 1307.14 507.189C1331.47 513.273 1357.37 515.886 1391.17 515.706H1507.94V516.575H1391.17C1357.33 516.786 1331.34 514.135 1306.93 508.033C1243.84 492.262 1182.68 470.243 1123.54 448.949C1027.02 414.198 927.22 378.263 820.193 370.696C611.813 354.792 415.718 422.947 232.733 494.108C184.023 512.731 132.399 517.144 82.2619 517.144Z" fill="#ABABAB" fill-opacity="0.1"/>
<path d="M1507.94 476.157H1391.17C1346.74 473.564 1296.41 470.624 1249.46 447.15C1043.8 342.338 866.972 276.215 672.481 294.197C540.166 306.473 421.553 360.516 306.846 412.78C275.293 427.157 242.665 442.022 210.142 455.853C165.772 475.081 118.52 475.472 72.8245 475.85C64.7946 475.916 56.4905 475.985 48.3778 476.157H-68.3973V475.288H48.3683C56.4769 475.116 64.7837 475.047 72.817 474.981C118.426 474.603 165.588 474.213 209.799 455.055C242.314 441.227 274.937 426.363 306.485 411.988C421.258 359.694 539.938 305.622 672.401 293.331C767.36 284.555 865.022 295.931 970.954 328.12C1073.21 359.192 1169.32 405.334 1249.85 446.373C1296.64 469.767 1346.87 472.7 1391.2 475.289L1507.94 475.288L1507.94 476.157Z" fill="#ABABAB" fill-opacity="0.1"/>
<path d="M1377.91 436.086C1295.32 436.088 1223.6 395.812 1154.12 356.795C1128.58 342.452 1102.16 327.621 1075.61 315.02C927.817 245.573 772.305 223.362 613.398 248.988C512.096 264.924 424.759 309.309 340.298 352.232C295.625 374.935 249.429 398.412 201.441 417.607C154.044 436.227 104.078 436.834 48.3594 435.737H-68.3979V434.868H48.3683C103.992 435.958 153.875 435.359 201.121 416.798C249.071 397.618 295.248 374.151 339.905 351.457C424.426 308.502 511.826 264.086 613.261 248.13C692.971 235.273 773.006 234.543 851.145 245.955C927.722 257.142 1003.37 280.113 1075.98 314.233C1102.56 326.848 1128.99 341.687 1154.54 356.037C1227.61 397.064 1303.16 439.481 1391.15 434.869L1507.94 434.868V435.737H1391.17C1386.72 435.972 1382.3 436.086 1377.91 436.086Z" fill="#ABABAB" fill-opacity="0.1"/>
<path d="M96.6449 396.367C84.1328 396.367 71.582 395.996 59.1323 395.629C55.5343 395.523 51.9411 395.417 48.3561 395.32H-68.3973V394.45H48.3683C51.9662 394.547 55.5594 394.653 59.1581 394.759C109.15 396.232 160.842 397.759 204.557 375.093C224.534 365.602 244.802 355.798 264.404 346.316C357.1 301.475 452.952 255.106 551.259 225.977C604.198 210.291 653.575 200.722 702.212 196.727C756.821 192.239 809.096 194.837 862.028 204.668C968.23 224.199 1060.62 271.098 1149.96 316.454C1187.98 335.755 1227.3 355.714 1267.22 373.342C1301.65 388.99 1343.34 396.096 1391.16 394.45H1507.94V395.32H1391.17C1343.24 396.973 1301.41 389.837 1266.86 374.135C1226.93 356.5 1187.6 336.536 1149.57 317.228C1060.28 271.901 967.95 225.031 861.872 205.523C641.893 164.666 450.185 257.411 264.784 347.098C245.181 356.581 224.911 366.387 204.946 375.87C171.951 392.978 134.489 396.367 96.6449 396.367Z" fill="#ABABAB" fill-opacity="0.1"/>
<path d="M1370.15 355.35C1324.9 355.35 1289.75 348.623 1258.17 334.146C1227.94 320.495 1197.3 305.798 1167.67 291.584C1038.15 229.457 904.222 165.216 755.89 163.803C609.877 162.319 457.108 209.968 275.1 313.728C264.036 319.231 255.22 324.993 246.694 330.564C227.472 343.126 210.87 353.974 177.918 354.9H-68.3966V354.031H177.906C210.601 353.112 227.107 342.326 246.218 329.836C254.765 324.25 263.603 318.475 274.691 312.96C358.45 265.211 434.087 230.163 505.904 205.827C593.485 176.148 675.276 162.142 755.899 162.933C904.423 164.348 1038.44 228.632 1168.05 290.8C1197.67 305.012 1228.31 319.706 1258.53 333.354C1294.71 349.939 1335.61 356.311 1391.15 354.031H1507.94V354.9H1391.17C1383.92 355.199 1376.92 355.35 1370.15 355.35Z" fill="#ABABAB" fill-opacity="0.1"/>
<path d="M1376.35 314.556C1317.25 314.556 1260.23 310.383 1209.45 280.228C919.395 100.674 566.356 98.9424 288.092 275.709C278.991 279.954 270.818 284.225 262.913 288.354C237.016 301.882 214.651 313.566 177.916 314.481H-68.3973V313.612H177.905C214.428 312.701 236.71 301.062 262.51 287.582C270.424 283.449 278.606 279.174 287.675 274.948C424.03 188.324 580.45 142.583 740.218 142.583C741.595 142.583 742.957 142.586 744.334 142.594C905.523 143.386 1066.51 190.723 1209.9 279.485C1264.72 312.033 1326.93 314.21 1391.17 313.612H1507.94V314.482H1391.17C1386.22 314.528 1381.27 314.556 1376.35 314.556Z" fill="#ABABAB" fill-opacity="0.1"/>
<path d="M1507.94 274.063H1261.63C1229.68 273.015 1210.02 260.889 1187.26 246.848C1175.9 239.845 1164.16 232.604 1149.77 226.008C896.139 79.8729 570.818 85.3139 300.733 240.191C297.612 241.504 294.586 242.782 291.597 244.044C254.611 259.664 222.668 273.154 177.913 274.063H-68.3979V273.193H177.904C222.483 272.288 254.354 258.829 291.258 243.243C294.248 241.981 297.274 240.702 300.348 239.414C430.448 164.806 577.219 123.38 724.746 119.636C876.466 115.785 1023.58 152.301 1150.17 225.236C1164.57 231.836 1176.34 239.092 1187.71 246.107C1210.37 260.083 1229.94 272.153 1261.65 273.193H1507.94V274.063Z" fill="#ABABAB" fill-opacity="0.1"/>
<path d="M1507.94 233.644H1261.63C1224.79 232.725 1197.93 220.688 1166.83 206.752C1157.16 202.423 1147.18 197.947 1136.38 193.581C892.649 66.6238 586.121 72.8711 295.35 210.704C263.047 226.087 225.909 233.262 178.56 233.262C178.231 233.262 177.905 233.262 177.576 233.261C129.632 233.614 87.4566 233.644 48.3683 233.644H-68.3973V232.774H48.3683C87.4546 232.774 129.628 232.745 177.573 232.391C177.899 232.393 178.23 232.393 178.555 232.393C225.78 232.393 262.791 225.245 294.977 209.919C362.681 177.826 432.443 152.39 502.328 134.319C574.306 115.707 646.591 104.871 717.18 102.115C868.699 96.1934 1009.87 126.704 1136.74 192.792C1147.52 197.147 1157.51 201.628 1167.18 205.959C1198.2 219.858 1224.98 231.861 1261.64 232.775H1507.94V233.644Z" fill="#ABABAB" fill-opacity="0.1"/>
<path d="M180.86 193.229C179.868 193.229 178.883 193.228 177.904 193.224H-68.3979V192.355H177.904C221.287 192.466 277.801 190.22 329.789 171.652C343.789 167.044 357.969 162.31 371.681 157.733C497.307 115.793 615.962 76.163 747.205 77.7421C862.412 77.7421 967.109 111.126 1077.95 146.469C1118.02 159.245 1159.45 172.456 1201.09 183.812C1214.6 187.188 1227.15 188.352 1240.44 189.584C1247.42 190.23 1254.64 190.899 1262.01 191.919C1310.57 192.303 1354.55 192.355 1391.17 192.355H1507.94V193.224H1391.17C1354.55 193.224 1310.56 193.172 1261.95 192.784C1254.54 191.764 1247.33 191.096 1240.36 190.449C1227.04 189.214 1214.45 188.048 1200.87 184.653C1159.2 173.289 1117.76 160.075 1077.69 147.297C966.912 111.974 862.277 78.6107 747.201 78.6107C616.087 77.0838 497.51 116.641 371.956 158.556C358.244 163.134 344.064 167.868 330.072 172.473C279.142 190.663 223.925 193.229 180.86 193.229Z" fill="#ABABAB" fill-opacity="0.1"/>
<path d="M1507.94 152.807H1391.17C1355.54 152.807 1311.21 152.807 1261.78 152.538L1254.15 152.379C1215.66 151.594 1175.86 150.783 1138.24 137.7C875.134 40.7649 596.261 42.4329 331.764 142.522C280.626 152.014 225.534 152.807 177.904 152.807H-68.3979V151.938H177.904C225.495 151.938 280.539 151.145 331.531 141.689C461.916 92.3416 597.255 66.7826 733.715 65.7416C736.604 65.7199 739.503 65.7084 742.393 65.7084C877.082 65.7084 1010.31 89.6401 1138.54 136.883C1176.01 149.916 1215.74 150.727 1254.16 151.511L1261.79 151.669C1311.21 151.938 1355.54 151.938 1391.17 151.938H1507.94V152.807H1507.94Z" fill="#ABABAB" fill-opacity="0.1"/>
<path d="M1507.94 112.388H1261.63C1214.66 112.388 1160.02 111.633 1105.88 102.623C856.542 29.7315 625.626 26.8922 419.499 94.18C410.578 96.3522 402.201 99.0177 394.099 101.595C376.652 107.145 360.174 112.388 340.282 112.388H-68.3979V111.518H340.282C360.039 111.518 376.455 106.296 393.835 100.767C401.951 98.1851 410.344 95.5148 419.261 93.3433C526.068 58.4779 641.437 42.3848 762.16 45.5301C872.529 48.4033 988.238 67.3276 1106.07 101.777C1160.09 110.764 1214.7 111.518 1261.63 111.518H1507.94L1507.94 112.388Z" fill="#ABABAB" fill-opacity="0.1"/>
<path d="M350.497 72.4666C346.952 72.4666 343.518 72.301 340.238 71.9665L-68.3979 71.9692V71.0999H340.282C353.284 72.4211 368.698 71.0816 383.727 67.3234C479.426 50.3441 592.14 32.3441 702.756 27.5389C818.075 22.5294 920.556 32.1269 1016.06 56.8797C1024.99 58.5348 1033.65 60.5449 1042.03 62.4897C1061.11 66.9176 1079.13 71.1006 1099.26 71.1006H1507.94V71.9699H1099.26C1079.03 71.9699 1060.96 67.7761 1041.83 63.3366C1033.46 61.3945 1024.81 59.3851 1015.87 57.7286C800.966 2.0328 585.84 32.3474 383.91 68.1737C372.606 71.0001 361.064 72.4666 350.497 72.4666Z" fill="#ABABAB" fill-opacity="0.1"/>
<path d="M402.851 32.53C392.262 32.53 381.607 32.2878 370.74 32.0401C360.802 31.8134 350.525 31.5793 340.28 31.5501H-68.3979V30.6808H340.282C350.536 30.71 360.817 30.9441 370.761 31.1708C402.396 31.8901 432.278 32.5721 463.737 27.3285C654.196 -7.71667 832.116 7.69242 1020.48 24.0034C1046.26 26.2353 1072.92 28.5439 1099.29 30.6829L1507.94 30.6808V31.5501H1099.26C1072.84 29.4105 1046.19 27.1019 1020.41 24.8693C832.101 8.56306 654.237 -6.83992 463.887 28.1849C443.162 31.6397 423.133 32.53 402.851 32.53Z" fill="#ABABAB" fill-opacity="0.1"/>
<path d="M1436.72 -211.397H1435.85V1364.94H1436.72V-211.397Z" fill="#ABABAB" fill-opacity="0.1"/>
<path d="M1400.89 -211.397H1400.02V1364.94H1400.89V-211.397Z" fill="#ABABAB" fill-opacity="0.1"/>
<path d="M1365.07 1364.94H1364.2V771.986C1364.24 750.667 1364.95 728.817 1365.64 707.686C1365.98 697.104 1366.34 686.164 1366.61 675.324C1368.56 601.044 1367.03 525.486 1365.55 452.415C1365.07 429.124 1364.59 405.039 1364.22 381.555C1364.22 349.62 1364.21 318.149 1364.2 287.364V-211.398H1365.07V287.364C1365.08 318.149 1365.09 349.621 1365.09 381.548C1365.46 405.024 1365.94 429.107 1366.41 452.398C1367.9 525.478 1369.43 601.047 1367.48 675.345C1367.21 686.189 1366.85 697.131 1366.51 707.714C1365.82 728.838 1365.11 750.682 1365.07 771.986V1364.94Z" fill="#ABABAB" fill-opacity="0.1"/>
<path d="M1329.24 1364.94H1328.37V956.257C1328.64 942.472 1328.64 928.7 1328.63 915.381C1328.62 888.491 1328.61 860.686 1330.94 832.694C1332.12 813.742 1333.43 794.531 1334.69 775.953C1340.81 685.991 1347.14 592.966 1341.37 500.685C1331.79 389.554 1327.54 290.305 1328.37 197.278V-211.397H1329.24V197.282C1328.41 290.285 1332.66 389.507 1342.24 500.62C1348.01 592.968 1341.68 686.023 1335.56 776.012C1334.3 794.589 1332.99 813.798 1331.8 832.757C1329.47 860.722 1329.49 888.509 1329.5 915.381C1329.51 928.704 1329.51 942.48 1329.24 956.266L1329.24 1364.94Z" fill="#ABABAB" fill-opacity="0.1"/>
<path d="M1293.42 1364.94H1292.55V956.257L1294.67 936.005C1317.12 721.968 1338.33 519.801 1297.91 302.537C1290.67 266.338 1291.05 230.547 1292.55 197.263V-211.397H1293.42V197.282C1291.93 230.531 1291.54 266.259 1298.76 302.373C1316.93 399.988 1324.06 504.497 1320.59 621.876C1317.49 726.829 1306.33 833.214 1295.53 936.095L1293.41 956.302L1293.42 1364.94Z" fill="#ABABAB" fill-opacity="0.1"/>
<path d="M1257.59 1364.94H1256.72V956.257C1256.72 936.024 1261.05 918.088 1265.63 899.1C1267.63 890.796 1269.7 882.209 1271.41 873.32C1315.55 684.261 1313.91 485.375 1266.54 282.173L1266.21 280.282C1261.33 252.302 1256.72 225.873 1256.72 197.282V-211.398H1257.59V197.282C1257.59 225.798 1262.19 252.19 1267.07 280.133L1267.39 282C1290.39 380.667 1302.69 480.027 1303.93 577.295C1305.21 678.346 1294.56 778.004 1272.27 873.502C1270.55 882.393 1268.48 890.99 1266.47 899.303C1261.9 918.241 1257.59 936.127 1257.59 956.256L1257.59 1364.94Z" fill="#ABABAB" fill-opacity="0.1"/>
<path d="M1221.76 1364.94H1220.9V1118.63C1220.9 1068.28 1221.58 1014.73 1229.78 962.376C1302.39 696.983 1305.88 472.445 1240.46 275.884C1238.1 266.333 1235.05 257.503 1232.1 248.962C1226.34 232.292 1220.9 216.546 1220.9 197.282V-211.397H1221.76V197.282C1221.76 216.4 1227.18 232.079 1232.92 248.679C1235.88 257.237 1238.93 266.086 1241.3 275.642C1306.76 472.34 1303.27 697.042 1230.63 962.559C1222.45 1014.81 1221.76 1068.31 1221.76 1118.63V1364.94Z" fill="#ABABAB" fill-opacity="0.1"/>
<path d="M1185.94 1364.94H1185.07V1118.63C1184.9 1073.98 1184.72 1027.81 1200.57 987.308C1292.69 723.117 1291 446.964 1195.66 188.722C1185.89 136.726 1185.07 82.0648 1185.07 34.9058V-211.397H1185.94V34.9058C1185.94 82.0248 1186.75 136.638 1196.5 188.491C1291.88 446.855 1293.58 723.21 1201.39 987.61C1185.59 1027.97 1185.77 1074.06 1185.94 1118.63V1364.94Z" fill="#ABABAB" fill-opacity="0.1"/>
<path d="M1150.11 1364.94H1149.24V1248.17C1149.24 1210.93 1149.27 1167.16 1149.61 1118.88C1150.11 1094.27 1151.8 1065.8 1160.58 1041.22C1278.28 736.69 1280.08 436.204 1165.8 172.234C1152.31 139.857 1151.34 102.719 1150.4 66.8023C1150.12 56.3233 1149.84 45.488 1149.24 34.9303L1149.24 -211.397H1150.11V34.9051C1150.7 45.452 1150.99 56.2941 1151.26 66.7799C1152.2 102.616 1153.18 139.672 1166.6 171.894C1226.02 309.142 1254.55 455.659 1251.39 607.374C1248.46 748.534 1218.18 894.601 1161.39 1041.52C1152.66 1065.98 1150.97 1094.36 1150.48 1118.89C1150.14 1167.16 1150.11 1210.93 1150.11 1248.17V1364.94H1150.11Z" fill="#ABABAB" fill-opacity="0.1"/>
<path d="M1114.29 1364.94H1113.42V1118.63C1114.29 1076.34 1127.08 1043.42 1141.88 1005.3C1144.06 999.67 1146.29 993.926 1148.54 988.022C1273.69 744.681 1267.46 443.248 1131.04 139.207C1116.98 105.83 1115.28 68.0048 1113.78 34.6323C1113.45 -12.9107 1113.42 -55.293 1113.42 -94.6311V-211.397H1114.29V-94.6317C1114.29 -55.2957 1114.32 -12.9141 1114.65 34.6093C1116.15 67.8928 1117.84 105.635 1131.83 138.859C1196.27 282.455 1232.11 425.485 1238.37 563.967C1245.3 717.237 1215.34 860.028 1149.33 988.375C1147.11 994.236 1144.88 999.982 1142.69 1005.62C1127.92 1043.66 1115.16 1076.51 1114.29 1118.64L1114.29 1364.94Z" fill="#ABABAB" fill-opacity="0.1"/>
<path d="M1078.46 1364.94H1077.59V1118.63C1078.55 1083.64 1090.57 1059.86 1104.48 1032.32C1109.7 1021.99 1115.1 1011.3 1120.27 999.297C1258.07 747.957 1254.31 426.977 1110.48 161.584L1109.17 158.351C1092.72 117.468 1078.51 82.1591 1077.59 34.9133V-211.398H1078.46V34.9045C1079.37 81.982 1093.56 117.221 1109.98 158.026L1111.26 161.214C1181.27 290.373 1219.73 435.175 1222.49 579.919C1223.88 652.983 1216.18 725.391 1199.61 795.132C1182.56 866.88 1156.13 935.699 1121.05 999.678C1115.88 1011.67 1110.48 1022.37 1105.25 1032.71C1091.39 1060.16 1079.42 1083.86 1078.46 1118.65L1078.46 1364.94Z" fill="#ABABAB" fill-opacity="0.1"/>
<path d="M1042.64 1364.94H1041.77V1248.17C1041.77 1206.85 1042.32 1166.69 1048.98 1129.61C1050.41 1123.87 1051.59 1118.06 1052.73 1112.44C1056.16 1095.63 1059.39 1079.75 1068.48 1065.47C1244.13 769.171 1248.45 427.112 1080.04 150.474C1076.25 142.038 1072.46 134.244 1068.79 126.707C1054.78 97.9055 1042.69 73.0319 1041.77 34.9153V-211.398H1042.64V34.9045C1043.55 72.8215 1055.61 97.6164 1069.57 126.327C1073.24 133.87 1077.03 141.67 1080.81 150.069C1122.88 219.171 1154.7 293.463 1175.36 370.836C1195.57 446.502 1205.11 525.094 1203.73 604.427C1200.96 762.56 1154.45 922.143 1069.22 1065.92C1060.21 1080.08 1056.99 1095.88 1053.59 1112.61C1052.44 1118.24 1051.25 1124.06 1049.83 1129.79C1043.19 1166.78 1042.64 1206.89 1042.64 1248.17V1364.94H1042.64Z" fill="#ABABAB" fill-opacity="0.1"/>
<path d="M1006.81 1364.94H1005.94V1248.17C1005.93 1244.82 1005.91 1241.46 1005.9 1238.09C1005.68 1194.45 1005.45 1149.31 1023.24 1107.26C1039.65 1066.94 1058.24 1026.89 1076.22 988.161C1124.66 883.811 1174.74 775.908 1184.9 655.357C1197.14 493.099 1152.3 324.142 1047.8 138.836C1042.43 127.778 1036.86 118.524 1031.46 109.575C1018.28 87.6979 1006.89 68.8042 1005.94 34.9167V-211.398H1006.81V34.9045C1007.75 68.5511 1019.09 87.3539 1032.21 109.126C1037.61 118.091 1043.2 127.362 1048.58 138.432C1096.66 223.699 1132.66 307.205 1155.56 386.607C1182.12 478.654 1192.28 569.098 1185.76 655.426C1175.6 776.135 1125.48 884.109 1077.01 988.526C1059.03 1027.25 1040.45 1067.28 1024.04 1107.59C1006.32 1149.49 1006.55 1194.53 1006.77 1238.09C1006.78 1241.45 1006.8 1244.82 1006.81 1248.17L1006.81 1364.94Z" fill="#ABABAB" fill-opacity="0.1"/>
<path d="M970.985 1364.94H970.115V1248.17C969.438 1201.64 972.296 1141.18 1000.65 1086.37C1074.14 946.226 1150.13 801.316 1160.55 637.979C1176.54 433.741 1081.25 250.489 997.173 88.8094C984.573 67.2101 979.443 41.5093 976.382 21.5359C970.594 -13.4353 970.114 -53.3692 970.114 -94.6311V-211.397H970.984V-94.6317C970.984 -53.4072 971.462 -13.512 977.241 21.3982C980.29 41.3024 985.397 66.898 997.934 88.3894C1046.45 181.685 1089.07 266.006 1119.45 353.385C1154.74 454.867 1168.47 547.979 1161.42 638.041C1156.74 711.394 1138.46 787.359 1105.54 870.271C1076.19 944.182 1038.18 1016.67 1001.42 1086.77C973.157 1141.41 970.308 1201.72 970.984 1248.16L970.985 1364.94Z" fill="#ABABAB" fill-opacity="0.1"/>
<path d="M935.159 1364.94H934.289V1248.17C932.84 1195.96 935.668 1141.26 965.901 1095.02C1183.1 774.651 1188.8 419.327 981.554 120.151C935.319 54.3546 932.852 -22.0352 934.289 -94.6399V-211.397H935.158V-94.6317C933.724 -22.1628 936.182 54.0703 982.267 119.653C1035.19 196.054 1074.86 276.983 1100.17 360.193C1124.77 441.071 1136.02 524.747 1133.61 608.898C1131.23 691.463 1115.71 774.917 1087.45 856.941C1059.42 938.326 1018.77 1018.59 966.624 1095.5C936.527 1141.54 933.712 1196.08 935.158 1248.16V1364.94H935.159Z" fill="#ABABAB" fill-opacity="0.1"/>
<path d="M899.333 1364.94H898.464V1248.17C894.267 1152.75 939.787 1070.39 983.806 990.735C999.131 963.006 1014.98 934.334 1028.46 905.568C1174.48 597.947 1054.23 286.905 927.645 80.1423C897.453 29.8217 897.94 -30.0387 898.411 -87.9298L898.464 -94.6345V-211.397H899.333V-94.6317L899.28 -87.923C898.81 -30.1527 898.325 29.5856 928.388 79.6924C1012.64 217.296 1065.81 353.862 1086.44 485.595C1109.87 635.209 1090.63 776.633 1029.25 905.938C1015.75 934.729 999.899 963.414 984.567 991.155C940.606 1070.7 895.147 1152.96 899.334 1248.15L899.333 1364.94Z" fill="#ABABAB" fill-opacity="0.1"/>
<path d="M863.507 1364.94H862.637V1248.17C861.355 1190.72 870.67 1142.91 891.116 1102.02C900.631 1081.8 910.446 1061.53 919.937 1041.93C967.454 943.8 1012.34 851.114 1035.38 738.758C1086.44 495.39 997.104 288.608 884.161 62.7232C862.896 21.7117 862.817 -26.7434 862.739 -73.6031C862.728 -80.4998 862.716 -87.6299 862.637 -94.627V-211.398H863.507V-94.6317C863.586 -87.6353 863.598 -80.5025 863.609 -73.6045C863.686 -26.8479 863.766 21.5 884.936 62.3289C935.849 164.155 988.208 273.085 1019.93 386.879C1054.55 511.067 1059.88 626.225 1036.23 738.935C1013.17 851.395 968.26 944.129 920.72 1042.31C911.23 1061.91 901.416 1082.17 891.898 1102.4C871.513 1143.17 862.227 1190.85 863.508 1248.16L863.507 1364.94Z" fill="#ABABAB" fill-opacity="0.1"/>
<path d="M827.681 1364.94H826.812V1248.17C824.846 1182.14 837.463 1120.78 863.3 1070.72C1021.93 768.49 1018.76 409.963 854.607 87.0668C825.657 32.5748 824.891 -27.4668 826.812 -94.6446V-211.398H827.681V-94.6317C825.764 -27.5672 826.525 32.3549 855.378 86.6664C894.921 164.451 925.661 245.495 946.746 327.559C967.994 410.26 979.534 494.38 981.042 577.584C982.579 662.339 973.71 746.68 954.681 828.266C935.119 912.131 904.634 993.84 864.071 1071.12C838.303 1121.05 825.719 1182.27 827.681 1248.16V1364.94Z" fill="#ABABAB" fill-opacity="0.1"/>
<path d="M791.855 1364.94H790.986V1248.17C791.132 1241.7 791.221 1235.08 791.304 1228.68C791.795 1191.62 792.303 1153.3 804.161 1117.72C922.115 780.715 921.512 414.682 802.424 59.1904C790.335 20.2392 790.679 -20.2485 791.012 -59.404C791.11 -70.9701 791.211 -82.9292 790.986 -94.6236V-211.397H791.855V-94.6317C792.081 -82.9339 791.979 -70.9681 791.881 -59.3965C791.549 -20.3082 791.205 20.1109 803.251 58.923C862.033 234.393 892.385 412.557 893.461 588.454C894.564 768.948 864.797 947.115 804.985 1118C793.171 1153.45 792.664 1191.7 792.174 1228.69C792.09 1235.1 792.002 1241.72 791.856 1248.18L791.855 1364.94Z" fill="#ABABAB" fill-opacity="0.1"/>
<path d="M756.03 1364.94H755.16V1248.17C753.698 1200.57 755.503 1153.95 760.677 1105.64C796.513 776.88 795.441 441.78 757.199 19.1038C755.259 -2.23151 755.486 -23.4563 755.705 -43.9827C755.881 -60.4036 756.061 -77.3823 755.161 -94.6087L755.16 -211.397H756.03V-94.6317C756.932 -77.4006 756.75 -60.4077 756.575 -43.9732C756.356 -23.4691 756.13 -2.26611 758.065 19.0258C776.058 217.884 785.583 395.402 787.189 561.722C789.03 752.573 780.641 930.521 761.541 1105.74C756.37 1154 754.568 1200.59 756.03 1248.16V1364.94Z" fill="#ABABAB" fill-opacity="0.1"/>
<path d="M720.204 1364.94H719.334V1248.17C720.694 1190.61 717.156 1134.93 708.522 1077.94C681.482 908.937 669.324 741.786 671.354 566.936C673.213 406.921 687.077 240.201 713.737 57.2509C719.321 16.7701 719.296 -24.5895 719.271 -64.5858C719.265 -74.4222 719.259 -84.5931 719.335 -94.6351V-211.398H720.204V-94.6317C720.129 -84.5904 720.135 -74.4208 720.14 -64.5865C720.165 -24.5603 720.191 16.8291 714.598 57.3731C659.806 433.356 658.149 757.605 709.381 1077.8C718.023 1134.85 721.564 1190.58 720.204 1248.18V1364.94Z" fill="#ABABAB" fill-opacity="0.1"/>
<path d="M684.378 1364.94H683.509V1248.17L683.341 1239.68C682.387 1190.54 681.4 1139.74 663.345 1095.42C596.305 932.375 564.853 755.587 569.863 569.972C574.397 401.997 608.771 224.786 672.029 43.2608C684.023 9.94812 683.739 -24.8202 683.439 -61.6298C683.351 -72.4244 683.26 -83.5874 683.509 -94.6419V-211.399H684.378V-94.6317C684.13 -83.58 684.221 -72.4244 684.309 -61.6352C684.609 -24.7463 684.894 10.096 672.85 43.5526C538.592 428.814 535.664 782.605 664.15 1095.09C682.266 1139.56 683.255 1190.45 684.21 1239.66L684.378 1248.16V1364.94Z" fill="#ABABAB" fill-opacity="0.1"/>
<path d="M648.552 1364.94H647.683V1248.17C649.534 1179.03 635.508 1116.55 605.992 1062.43C565.95 989.24 535.255 911.873 514.757 832.486C494.47 753.909 484.128 673.195 484.02 592.587C483.91 511.773 494.088 430.949 514.269 352.361C534.756 272.579 565.616 194.884 605.993 121.432C645.675 49.6268 649.118 -31.7495 647.684 -94.6216V-211.397H648.553V-94.6317C649.99 -31.6599 646.537 49.8657 606.754 121.852C445.339 415.491 445.339 766.954 606.756 1062.02C636.347 1116.27 650.409 1178.9 648.553 1248.18V1364.94H648.552Z" fill="#ABABAB" fill-opacity="0.1"/>
<path d="M612.726 1364.94H611.857V1248.17C613.103 1189.75 604.609 1145.1 585.125 1107.63C579.278 1095.64 573.411 1083.7 567.554 1071.78C502.428 939.244 440.916 814.055 423.389 665.876C413.53 575.04 424.171 480.907 455.919 378.094C484.222 286.439 526.311 196.486 567.016 109.495C575.84 90.6336 584.966 71.1304 593.809 51.9164C613.986 8.19864 613 -39.4489 611.955 -89.8924L611.857 -94.6229V-211.397H612.726V-94.6317L612.823 -89.9114C613.871 -39.3641 614.86 8.38051 594.599 52.2795C585.756 71.4962 576.629 91.0007 567.803 109.863C486.44 283.75 402.306 463.556 424.252 665.778C441.762 813.806 503.243 938.929 568.333 1071.4C574.192 1083.32 580.059 1095.26 585.901 1107.24C605.449 1144.83 613.975 1189.62 612.726 1248.18V1364.94Z" fill="#ABABAB" fill-opacity="0.1"/>
<path d="M576.9 1364.94H576.031V1248.17C576.326 1199.99 572.097 1137.71 536.466 1083.33C485.096 1007.78 445.476 928.303 418.708 847.101C392.072 766.298 378.072 683.521 377.095 601.067C376.112 518.031 388.339 435.032 413.435 354.377C438.996 272.233 478.051 192.093 529.516 116.183C573.792 50.6542 578.038 -23.8587 576.032 -94.6195V-211.397H576.901V-94.6317C578.911 -23.7385 574.65 50.9366 530.236 116.67C323.989 420.885 326.523 773.042 537.189 1082.85C572.952 1137.43 577.198 1199.87 576.901 1248.17L576.9 1364.94Z" fill="#ABABAB" fill-opacity="0.1"/>
<path d="M541.075 1364.94H540.206V1248.17C543.903 1174.64 530.011 1118.41 496.486 1071.17C443.24 994.069 403.389 912.354 378.037 828.293C353.502 746.939 342.292 662.586 344.714 577.578C347.077 494.641 362.421 410.512 390.321 327.529C417.819 245.734 457.631 164.685 508.648 86.6325C543.296 35.4854 541.835 -25.9257 540.422 -85.3152C540.348 -88.4191 540.275 -91.5217 540.206 -94.6222V-211.397H541.075V-94.6317C541.144 -91.5414 541.218 -88.4395 541.291 -85.3355C542.708 -25.8096 544.172 35.7425 509.372 87.1136C295.711 413.996 291.273 772.491 497.199 1070.67C530.839 1118.07 544.781 1174.48 541.074 1248.19L541.075 1364.94Z" fill="#ABABAB" fill-opacity="0.1"/>
<path d="M505.25 1364.94H504.381V1248.17C512.154 1146.28 464.156 1057.34 417.738 971.331C408.035 953.352 398.003 934.761 388.662 916.381C323.957 790.248 301.641 650.723 322.334 501.685C331.686 434.333 349.964 364.883 376.663 295.266C401.746 229.862 434.45 163.766 473.869 98.8148C488.239 75.464 496.451 49.6933 498.28 22.2152C503.915 -13.2636 504.381 -53.2993 504.381 -94.6311V-211.397H505.251V-94.6317C505.251 -53.2633 504.784 -13.1917 499.144 22.3116C497.31 49.8935 489.054 75.7979 474.612 99.2675C298.43 389.565 268.181 679.615 389.436 915.985C398.772 934.358 408.802 952.944 418.503 970.918C464.98 1057.04 513.04 1146.1 505.249 1248.2L505.25 1364.94Z" fill="#ABABAB" fill-opacity="0.1"/>
<path d="M469.424 1364.94H468.555V1248.17C470.433 1185.63 469.462 1125.31 437.362 1074.63C348.632 926.744 299.933 763.908 296.527 603.716C294.796 522.321 304.719 442.134 326.02 365.381C347.991 286.214 382.1 210.663 427.4 140.826C432.497 130.174 437.785 121.002 442.898 112.13C456.162 89.1196 467.618 69.2466 468.556 34.8943V-211.397H469.425V34.9058C468.48 69.4903 456.974 89.4514 443.651 112.565C438.546 121.422 433.267 130.58 428.157 141.25C249.305 416.987 253.034 765.724 438.103 1074.17C470.328 1125.06 471.308 1185.52 469.425 1248.18L469.424 1364.94Z" fill="#ABABAB" fill-opacity="0.1"/>
<path d="M433.597 1364.94H432.728V1118.63C431.695 1086.84 419.693 1067.71 405.795 1045.57C398.904 1034.59 391.779 1023.24 385.237 1009.24C309.541 881.939 271.173 733.505 274.3 580.023C277.347 430.512 319.279 282.641 395.564 152.395C398.82 144.991 402.103 137.941 405.277 131.125C419.52 100.539 431.819 74.1245 432.728 34.8956V-211.397H433.597V34.9051C432.685 74.326 420.349 100.817 406.065 131.491C402.893 138.304 399.612 145.348 396.338 152.788C237.367 424.214 233.416 752.213 386.004 1008.83C392.544 1022.82 399.655 1034.15 406.532 1045.11C420.496 1067.36 432.556 1086.57 433.597 1118.62V1364.94Z" fill="#ABABAB" fill-opacity="0.1"/>
<path d="M397.772 1364.94H396.903V1118.63C395.967 1082.79 383.957 1057.63 370.05 1028.49C365.343 1018.63 360.475 1008.43 355.748 997.21C282.962 865.399 250.366 717.507 258.888 557.684C262.796 484.378 275.51 408.781 296.675 332.997C316.902 260.575 344.925 187.645 379.964 116.234C393.289 89.5851 395.743 56.7943 396.431 34.4464C396.846 -14.1451 396.902 -58.0719 396.902 -94.6324V-211.398H397.771V-94.6317C397.771 -58.0699 397.716 -14.1417 397.3 34.4641C396.61 56.9028 394.143 89.8206 380.744 116.621C225.925 432.135 217.326 744.734 356.529 996.832C361.268 1008.07 366.131 1018.26 370.835 1028.12C384.783 1057.34 396.83 1082.58 397.771 1118.62V1364.94H397.772Z" fill="#ABABAB" fill-opacity="0.1"/>
<path d="M361.946 1364.94H361.077V1118.63C360.209 1073.81 346.91 1037.91 331.511 996.343C330.264 992.975 329.001 989.569 327.731 986.117C281.555 883.618 252.606 779.674 241.697 677.201C229.889 566.288 239.549 458.883 270.407 357.965C280.554 324.324 292.99 291.24 305.019 259.246C333.074 184.617 359.574 114.127 360.736 34.6378C361.078 -16.0085 361.078 -61.4507 361.078 -94.6311V-211.397H361.947V-94.6317C361.947 -61.4507 361.947 -16.0065 361.606 34.6466C360.442 114.29 333.916 184.849 305.833 259.551C293.81 291.533 281.378 324.602 271.24 358.218C195.909 604.568 260.818 835.467 328.535 985.788C329.817 989.268 331.079 992.673 332.326 996.041C347.753 1037.68 361.076 1073.64 361.946 1118.63V1364.94Z" fill="#ABABAB" fill-opacity="0.1"/>
<path d="M326.121 1364.94H325.252V1248.17C325.252 1208.68 325.226 1166.17 324.917 1118.85C326.181 1079.99 321.163 1044.84 310.407 1017.18C255.703 878.655 227.348 737.578 226.13 597.87C224.871 453.211 252.847 313.574 309.282 182.84C320.021 140.077 325.252 91.6643 325.252 34.9051V-211.397H326.121V34.9051C326.121 91.737 320.882 140.218 310.103 183.119C199.589 439.142 199.992 735.215 311.216 1016.86C322.016 1044.63 327.054 1079.9 325.787 1118.86C326.096 1166.16 326.122 1208.68 326.122 1248.17V1364.94H326.121Z" fill="#ABABAB" fill-opacity="0.1"/>
<path d="M290.296 1364.94H289.426V1118.63C289.426 1061.6 284.571 1012.17 274.584 967.526C228.706 844.865 206.598 713.847 208.894 578.166C211.071 449.464 235.061 318.753 280.199 189.663C288.712 139.331 289.426 85.6098 289.426 34.9051V-211.397H290.296V34.9051C290.296 85.6465 289.581 139.41 281.038 189.878C187.352 457.831 185.414 726.628 275.415 967.278C285.434 1012.04 290.296 1061.53 290.296 1118.63V1364.94Z" fill="#ABABAB" fill-opacity="0.1"/>
<path d="M254.469 1364.94H253.599V1118.63C253.599 1073.1 253.599 1016.43 246.09 961.451C214.192 840.513 196.213 725.279 192.666 619.004C188.599 497.176 203.257 382.141 236.234 277.094C238.287 268.282 240.8 259.899 243.229 251.793C248.562 233.998 253.599 217.192 253.599 197.282V-211.397H254.469V197.282C254.469 217.32 249.413 234.185 244.062 252.042C241.636 260.136 239.128 268.505 237.073 277.323C174.717 475.958 177.948 699.673 246.941 961.282C254.469 1016.37 254.469 1073.07 254.469 1118.63V1364.94Z" fill="#ABABAB" fill-opacity="0.1"/>
<path d="M218.643 1364.94H217.774V956.257C217.774 934.733 213.787 915.177 209.565 894.473C208.101 887.289 206.587 879.862 205.24 872.301C180.858 782.112 171.233 682.506 175.825 567.828C179.914 465.69 194.625 361.642 208.851 261.02C211.808 240.1 214.867 218.467 217.777 197.223L217.773 -211.397H218.642V197.282C215.728 218.588 212.669 240.221 209.712 261.141C181.216 462.692 151.75 671.104 206.087 872.112C207.441 879.699 208.953 887.121 210.417 894.299C214.647 915.049 218.642 934.647 218.642 956.258V1364.94H218.643Z" fill="#ABABAB" fill-opacity="0.1"/>
<path d="M182.818 1364.94H181.948V956.257C181.818 898.872 174.9 840.546 168.208 784.142C163.135 741.383 157.89 697.168 155.641 653.678C151.416 555.115 162.214 456.995 172.655 362.103C175.119 339.715 177.666 316.565 179.984 293.719C181.55 265.509 183.502 230.376 181.949 197.302L181.948 -211.398H182.818V197.282C184.373 230.379 182.419 265.537 180.85 293.787C178.53 316.656 175.983 339.808 173.519 362.198C163.081 457.056 152.288 555.144 156.509 653.636C158.757 697.093 164.001 741.294 169.071 784.039C175.765 840.469 182.687 898.819 182.817 956.256V1364.94H182.818Z" fill="#ABABAB" fill-opacity="0.1"/>
<path d="M146.993 1364.94H146.123V956.257C145.821 893.015 143.296 828.499 140.855 766.107C135.904 639.588 130.785 508.762 143.826 380.824C145.679 346.65 146.027 312.924 146.123 287.363V-211.397H146.993V287.365C146.897 312.938 146.548 346.677 144.693 380.893C131.655 508.789 136.774 639.584 141.724 766.073C144.166 828.473 146.691 892.996 146.993 956.255V1364.94Z" fill="#ABABAB" fill-opacity="0.1"/>
<path d="M111.167 1364.94H110.297V866.175C110.287 835.388 110.283 803.917 110.279 771.99C108.113 686.807 108.853 600.37 109.569 516.778C109.949 472.411 110.342 426.534 110.292 381.553L110.297 -211.397H111.167L111.161 381.552C111.212 426.538 110.818 472.416 110.438 516.785C109.723 600.37 108.983 686.801 111.148 771.979C111.153 803.917 111.156 835.388 111.167 866.175V1364.94Z" fill="#ABABAB" fill-opacity="0.1"/>
<path d="M75.3408 -211.397H74.4715V1364.94H75.3408V-211.397Z" fill="#ABABAB" fill-opacity="0.1"/>
<path d="M39.5152 -211.397H38.6452V1364.94H39.5152V-211.397Z" fill="#ABABAB" fill-opacity="0.1"/>
<path d="M3.68955 -211.397H2.81958V1364.94H3.68955V-211.397Z" fill="#ABABAB" fill-opacity="0.1"/>
</g>
</svg>
